<svg xmlns="http://www.w3.org/2000/svg" xmlns:xlink="http://www.w3.org/1999/xlink" width="1728" zoomAndPan="magnify" viewBox="0 0 1296 1727.999927" height="2304" preserveAspectRatio="xMidYMid meet" version="1.0"><defs><g/><clipPath id="adfb2f6f53"><path d="M 0 501 L 1296 501 L 1296 1247 L 0 1247 Z M 0 501 " clip-rule="nonzero"/></clipPath><clipPath id="3cce9598f8"><path d="M -97.199219 949.828125 L 1296.640625 501.894531 L 1392.042969 798.75 L -1.796875 1246.6875 Z M -97.199219 949.828125 " clip-rule="nonzero"/></clipPath><clipPath id="7bbe0c9510"><path d="M -4.660156 920.089844 L 1296.535156 501.925781 L 1299.398438 828.523438 L -1.796875 1246.6875 Z M -4.660156 920.089844 " clip-rule="nonzero"/></clipPath><clipPath id="c2da08e1f0"><path d="M 284 907 L 390 907 L 390 1056 L 284 1056 Z M 284 907 " clip-rule="nonzero"/></clipPath><clipPath id="ae5db1ab1d"><path d="M -50.789062 934.914062 L 1250.183594 516.824219 L 1345.640625 813.863281 L 44.671875 1231.953125 Z M -50.789062 934.914062 " clip-rule="nonzero"/></clipPath><clipPath id="30165d6387"><path d="M 365 887 L 457 887 L 457 1028 L 365 1028 Z M 365 887 " clip-rule="nonzero"/></clipPath><clipPath id="542da4b019"><path d="M -50.789062 934.914062 L 1250.183594 516.824219 L 1345.640625 813.863281 L 44.671875 1231.953125 Z M -50.789062 934.914062 " clip-rule="nonzero"/></clipPath><clipPath id="635a840485"><path d="M 442 900 L 523 900 L 523 1008 L 442 1008 Z M 442 900 " clip-rule="nonzero"/></clipPath><clipPath id="ba3530f223"><path d="M -50.789062 934.914062 L 1250.183594 516.824219 L 1345.640625 813.863281 L 44.671875 1231.953125 Z M -50.789062 934.914062 " clip-rule="nonzero"/></clipPath><clipPath id="0ebc75b705"><path d="M 506 880 L 587 880 L 587 988 L 506 988 Z M 506 880 " clip-rule="nonzero"/></clipPath><clipPath id="351929ea45"><path d="M -50.789062 934.914062 L 1250.183594 516.824219 L 1345.640625 813.863281 L 44.671875 1231.953125 Z M -50.789062 934.914062 " clip-rule="nonzero"/></clipPath><clipPath id="fa6a825dda"><path d="M 560 822 L 659 822 L 659 966 L 560 966 Z M 560 822 " clip-rule="nonzero"/></clipPath><clipPath id="ebb813c2df"><path d="M -50.789062 934.914062 L 1250.183594 516.824219 L 1345.640625 813.863281 L 44.671875 1231.953125 Z M -50.789062 934.914062 " clip-rule="nonzero"/></clipPath><clipPath id="5be27906a5"><path d="M 634 838 L 716 838 L 716 947 L 634 947 Z M 634 838 " clip-rule="nonzero"/></clipPath><clipPath id="13fab8d4c1"><path d="M -50.789062 934.914062 L 1250.183594 516.824219 L 1345.640625 813.863281 L 44.671875 1231.953125 Z M -50.789062 934.914062 " clip-rule="nonzero"/></clipPath><clipPath id="461da51185"><path d="M 688 783 L 782 783 L 782 926 L 688 926 Z M 688 783 " clip-rule="nonzero"/></clipPath><clipPath id="64e2825ea0"><path d="M -50.789062 934.914062 L 1250.183594 516.824219 L 1345.640625 813.863281 L 44.671875 1231.953125 Z M -50.789062 934.914062 " clip-rule="nonzero"/></clipPath><clipPath id="a52ed069db"><path d="M 789 904 L 790 904 L 790 905 L 789 905 Z M 789 904 " clip-rule="nonzero"/></clipPath><clipPath id="26285ffcd3"><path d="M -50.789062 934.914062 L 1250.183594 516.824219 L 1345.640625 813.863281 L 44.671875 1231.953125 Z M -50.789062 934.914062 " clip-rule="nonzero"/></clipPath><clipPath id="59c5115765"><path d="M 791 743 L 900 743 L 900 893 L 791 893 Z M 791 743 " clip-rule="nonzero"/></clipPath><clipPath id="b8993788a2"><path d="M -50.789062 934.914062 L 1250.183594 516.824219 L 1345.640625 813.863281 L 44.671875 1231.953125 Z M -50.789062 934.914062 " clip-rule="nonzero"/></clipPath><clipPath id="07644ec9d2"><path d="M 885 759 L 967 759 L 967 866 L 885 866 Z M 885 759 " clip-rule="nonzero"/></clipPath><clipPath id="7b73e56146"><path d="M -50.789062 934.914062 L 1250.183594 516.824219 L 1345.640625 813.863281 L 44.671875 1231.953125 Z M -50.789062 934.914062 " clip-rule="nonzero"/></clipPath><clipPath id="64ec658543"><path d="M 940 716 L 1018 716 L 1018 846 L 940 846 Z M 940 716 " clip-rule="nonzero"/></clipPath><clipPath id="c799caec51"><path d="M -50.789062 934.914062 L 1250.183594 516.824219 L 1345.640625 813.863281 L 44.671875 1231.953125 Z M -50.789062 934.914062 " clip-rule="nonzero"/></clipPath></defs><g clip-path="url(#adfb2f6f53)"><g clip-path="url(#3cce9598f8)"><g clip-path="url(#7bbe0c9510)"><path fill="#004aad" d="M -97.199219 949.828125 L 1296.640625 501.894531 L 1392.042969 798.75 L -1.796875 1246.6875 Z M -97.199219 949.828125 " fill-opacity="1" fill-rule="nonzero"/></g></g></g><g clip-path="url(#c2da08e1f0)"><g clip-path="url(#ae5db1ab1d)"><g fill="#737373" fill-opacity="1"><g transform="translate(317.403678, 1056.073417)"><g><path d="M 41.203125 -11.703125 C 32.410156 -8.878906 25 -8.53125 18.96875 -10.65625 C 12.9375 -12.78125 7.972656 -16.65625 4.078125 -22.28125 C 0.179688 -27.90625 -3 -34.550781 -5.46875 -42.21875 L -19.546875 -86.03125 C -22.242188 -94.414062 -23.644531 -102.023438 -23.75 -108.859375 C -23.851562 -115.703125 -22.03125 -121.613281 -18.28125 -126.59375 C -14.53125 -131.570312 -8.257812 -135.472656 0.53125 -138.296875 C 8.289062 -140.796875 14.898438 -141.34375 20.359375 -139.9375 C 25.828125 -138.539062 30.410156 -135.503906 34.109375 -130.828125 C 37.816406 -126.148438 40.867188 -120.082031 43.265625 -112.625 L 46.421875 -102.828125 L 30.03125 -97.5625 L 27.21875 -106.296875 C 25.738281 -110.898438 24.203125 -114.890625 22.609375 -118.265625 C 21.015625 -121.648438 18.882812 -123.984375 16.21875 -125.265625 C 13.550781 -126.546875 9.816406 -126.414062 5.015625 -124.875 C 0.109375 -123.289062 -3.128906 -121.09375 -4.703125 -118.28125 C -6.273438 -115.46875 -6.773438 -112.035156 -6.203125 -107.984375 C -5.640625 -103.941406 -4.539062 -99.367188 -2.90625 -94.265625 L 12.90625 -45.0625 C 14.90625 -38.84375 17 -34.082031 19.1875 -30.78125 C 21.375 -27.476562 23.890625 -25.4375 26.734375 -24.65625 C 29.578125 -23.875 32.992188 -24.125 36.984375 -25.40625 C 41.679688 -26.914062 44.710938 -29.046875 46.078125 -31.796875 C 47.453125 -34.554688 47.804688 -37.851562 47.140625 -41.6875 C 46.472656 -45.53125 45.347656 -49.90625 43.765625 -54.8125 L 40.8125 -64 L 57.203125 -69.265625 L 60.15625 -60.078125 C 62.59375 -52.515625 63.816406 -45.550781 63.828125 -39.1875 C 63.847656 -32.820312 62.125 -27.304688 58.65625 -22.640625 C 55.1875 -17.972656 49.367188 -14.328125 41.203125 -11.703125 Z M 41.203125 -11.703125 "/></g></g></g></g></g><g clip-path="url(#30165d6387)"><g clip-path="url(#542da4b019)"><g fill="#737373" fill-opacity="1"><g transform="translate(396.327141, 1030.709916)"><g><path d="M 8.734375 -2.8125 L -31.15625 -126.953125 L -14.75 -132.21875 L -0.375 -87.453125 C 1.664062 -91.265625 4.195312 -94.78125 7.21875 -98 C 10.238281 -101.226562 13.992188 -103.566406 18.484375 -105.015625 C 21.972656 -106.128906 24.953125 -106.070312 27.421875 -104.84375 C 29.898438 -103.613281 31.96875 -101.742188 33.625 -99.234375 C 35.28125 -96.722656 36.566406 -94.035156 37.484375 -91.171875 L 60.53125 -19.453125 L 44.140625 -14.1875 L 22.625 -81.15625 C 21.601562 -84.320312 20.351562 -86.625 18.875 -88.0625 C 17.40625 -89.507812 15.234375 -89.773438 12.359375 -88.859375 C 10.421875 -88.234375 8.582031 -87.019531 6.84375 -85.21875 C 5.113281 -83.425781 3.597656 -81.414062 2.296875 -79.1875 L 25.140625 -8.078125 Z M 8.734375 -2.8125 "/></g></g></g></g></g><g clip-path="url(#635a840485)"><g clip-path="url(#ba3530f223)"><g fill="#737373" fill-opacity="1"><g transform="translate(464.523142, 1008.793881)"><g><path d="M 33.1875 -9.328125 C 26.238281 -7.085938 20.4375 -6.710938 15.78125 -8.203125 C 11.132812 -9.703125 7.222656 -12.84375 4.046875 -17.625 C 0.878906 -22.414062 -1.929688 -28.640625 -4.390625 -36.296875 L -10.890625 -56.53125 C -13.410156 -64.394531 -14.742188 -71.175781 -14.890625 -76.875 C -15.035156 -82.570312 -13.617188 -87.363281 -10.640625 -91.25 C -7.660156 -95.144531 -2.800781 -98.175781 3.9375 -100.34375 C 11.394531 -102.738281 17.378906 -102.96875 21.890625 -101.03125 C 26.398438 -99.101562 30.140625 -95.429688 33.109375 -90.015625 C 36.085938 -84.609375 38.875 -77.867188 41.46875 -69.796875 L 43.78125 -62.59375 L 8.84375 -51.375 L 14.5625 -33.59375 C 15.707031 -30.019531 16.972656 -27.21875 18.359375 -25.1875 C 19.742188 -23.15625 21.347656 -21.835938 23.171875 -21.234375 C 25.003906 -20.628906 27.097656 -20.707031 29.453125 -21.46875 C 31.898438 -22.25 33.578125 -23.429688 34.484375 -25.015625 C 35.390625 -26.609375 35.710938 -28.570312 35.453125 -30.90625 C 35.203125 -33.25 34.601562 -35.90625 33.65625 -38.875 L 31.921875 -44.25 L 47.875 -49.375 L 48.96875 -46 C 51.820312 -37.113281 52.175781 -29.507812 50.03125 -23.1875 C 47.894531 -16.863281 42.28125 -12.242188 33.1875 -9.328125 Z M 6 -60.265625 L 24.84375 -66.3125 L 22.28125 -74.28125 C 21.09375 -77.957031 19.894531 -80.984375 18.6875 -83.359375 C 17.476562 -85.734375 16.023438 -87.351562 14.328125 -88.21875 C 12.640625 -89.082031 10.421875 -89.070312 7.671875 -88.1875 C 5.015625 -87.332031 3.191406 -86.066406 2.203125 -84.390625 C 1.222656 -82.722656 0.941406 -80.351562 1.359375 -77.28125 C 1.785156 -74.21875 2.820312 -70.128906 4.46875 -65.015625 Z M 6 -60.265625 "/></g></g></g></g></g><g clip-path="url(#0ebc75b705)"><g clip-path="url(#351929ea45)"><g fill="#737373" fill-opacity="1"><g transform="translate(529.041165, 988.059831)"><g><path d="M 32.875 -9.21875 C 25.625 -6.894531 19.664062 -6.585938 15 -8.296875 C 10.332031 -10.003906 6.507812 -13.304688 3.53125 -18.203125 C 0.550781 -23.109375 -2.070312 -29.085938 -4.34375 -36.140625 L -10.890625 -56.53125 C -13.285156 -63.988281 -14.664062 -70.5625 -15.03125 -76.25 C -15.394531 -81.9375 -14.160156 -86.78125 -11.328125 -90.78125 C -8.503906 -94.789062 -3.519531 -97.941406 3.625 -100.234375 C 10.0625 -102.304688 15.378906 -102.863281 19.578125 -101.90625 C 23.773438 -100.945312 27.203125 -98.609375 29.859375 -94.890625 C 32.523438 -91.179688 34.84375 -86.257812 36.8125 -80.125 L 38.484375 -74.921875 L 23.609375 -70.140625 L 21.890625 -75.5 C 20.640625 -79.382812 19.394531 -82.367188 18.15625 -84.453125 C 16.925781 -86.535156 15.484375 -87.875 13.828125 -88.46875 C 12.179688 -89.070312 10.128906 -88.976562 7.671875 -88.1875 C 5.015625 -87.332031 3.164062 -86.0625 2.125 -84.375 C 1.09375 -82.6875 0.8125 -80.316406 1.28125 -77.265625 C 1.757812 -74.210938 2.804688 -70.179688 4.421875 -65.171875 L 13.375 -37.28125 C 15.800781 -29.71875 18.140625 -24.882812 20.390625 -22.78125 C 22.648438 -20.6875 25.617188 -20.234375 29.296875 -21.421875 C 32.054688 -22.304688 33.867188 -23.59375 34.734375 -25.28125 C 35.597656 -26.96875 35.828125 -29.039062 35.421875 -31.5 C 35.023438 -33.96875 34.351562 -36.679688 33.40625 -39.640625 L 31.09375 -46.84375 L 45.96875 -51.625 L 47.9375 -45.5 C 49.84375 -39.570312 50.796875 -34.238281 50.796875 -29.5 C 50.796875 -24.769531 49.394531 -20.71875 46.59375 -17.34375 C 43.789062 -13.96875 39.21875 -11.257812 32.875 -9.21875 Z M 32.875 -9.21875 "/></g></g></g></g></g><g clip-path="url(#fa6a825dda)"><g clip-path="url(#ebb813c2df)"><g fill="#737373" fill-opacity="1"><g transform="translate(592.026677, 967.818282)"><g><path d="M 8.53125 -2.921875 L -31.359375 -127.046875 L -14.96875 -132.3125 L 8.8125 -58.296875 L 20.40625 -104.28125 L 37.578125 -109.796875 L 27.875 -68.46875 L 65.4375 -21.03125 L 49.046875 -15.765625 L 17.90625 -55.796875 L 14.03125 -42.046875 L 24.921875 -8.1875 Z M 8.53125 -2.921875 "/></g></g></g></g></g><g clip-path="url(#5be27906a5)"><g clip-path="url(#13fab8d4c1)"><g fill="#737373" fill-opacity="1"><g transform="translate(656.851184, 946.985739)"><g><path d="M 33.1875 -9.328125 C 26.238281 -7.085938 20.4375 -6.710938 15.78125 -8.203125 C 11.132812 -9.703125 7.222656 -12.84375 4.046875 -17.625 C 0.878906 -22.414062 -1.929688 -28.640625 -4.390625 -36.296875 L -10.890625 -56.53125 C -13.410156 -64.394531 -14.742188 -71.175781 -14.890625 -76.875 C -15.035156 -82.570312 -13.617188 -87.363281 -10.640625 -91.25 C -7.660156 -95.144531 -2.800781 -98.175781 3.9375 -100.34375 C 11.394531 -102.738281 17.378906 -102.96875 21.890625 -101.03125 C 26.398438 -99.101562 30.140625 -95.429688 33.109375 -90.015625 C 36.085938 -84.609375 38.875 -77.867188 41.46875 -69.796875 L 43.78125 -62.59375 L 8.84375 -51.375 L 14.5625 -33.59375 C 15.707031 -30.019531 16.972656 -27.21875 18.359375 -25.1875 C 19.742188 -23.15625 21.347656 -21.835938 23.171875 -21.234375 C 25.003906 -20.628906 27.097656 -20.707031 29.453125 -21.46875 C 31.898438 -22.25 33.578125 -23.429688 34.484375 -25.015625 C 35.390625 -26.609375 35.710938 -28.570312 35.453125 -30.90625 C 35.203125 -33.25 34.601562 -35.90625 33.65625 -38.875 L 31.921875 -44.25 L 47.875 -49.375 L 48.96875 -46 C 51.820312 -37.113281 52.175781 -29.507812 50.03125 -23.1875 C 47.894531 -16.863281 42.28125 -12.242188 33.1875 -9.328125 Z M 6 -60.265625 L 24.84375 -66.3125 L 22.28125 -74.28125 C 21.09375 -77.957031 19.894531 -80.984375 18.6875 -83.359375 C 17.476562 -85.734375 16.023438 -87.351562 14.328125 -88.21875 C 12.640625 -89.082031 10.421875 -89.070312 7.671875 -88.1875 C 5.015625 -87.332031 3.191406 -86.066406 2.203125 -84.390625 C 1.222656 -82.722656 0.941406 -80.351562 1.359375 -77.28125 C 1.785156 -74.21875 2.820312 -70.128906 4.46875 -65.015625 Z M 6 -60.265625 "/></g></g></g></g></g><g clip-path="url(#461da51185)"><g clip-path="url(#64e2825ea0)"><g fill="#737373" fill-opacity="1"><g transform="translate(721.369185, 926.251696)"><g><path d="M 29.203125 -8.046875 C 21.742188 -5.648438 15.296875 -6.59375 9.859375 -10.875 C 4.429688 -15.15625 -0.382812 -23.835938 -4.59375 -36.921875 L -10.09375 -54.078125 C -12.257812 -60.816406 -13.707031 -67.25 -14.4375 -73.375 C -15.175781 -79.507812 -14.546875 -84.8125 -12.546875 -89.28125 C -10.546875 -93.757812 -6.53125 -96.96875 -0.5 -98.90625 C 2.457031 -99.863281 5.375 -100.070312 8.25 -99.53125 C 11.132812 -98.988281 13.859375 -98.0625 16.421875 -96.75 L 3.171875 -137.984375 L 19.5625 -143.25 L 59.453125 -19.109375 L 43.0625 -13.84375 L 41.234375 -19.515625 C 39.953125 -16.847656 38.367188 -14.503906 36.484375 -12.484375 C 34.597656 -10.472656 32.171875 -8.992188 29.203125 -8.046875 Z M 29.203125 -22.234375 C 30.722656 -22.722656 32.265625 -23.523438 33.828125 -24.640625 C 35.398438 -25.765625 36.867188 -27.175781 38.234375 -28.875 L 19.578125 -86.9375 C 17.816406 -87.5 15.941406 -87.882812 13.953125 -88.09375 C 11.972656 -88.300781 9.960938 -88.078125 7.921875 -87.421875 C 4.140625 -86.210938 2.164062 -83.578125 2 -79.515625 C 1.84375 -75.460938 2.582031 -70.882812 4.21875 -65.78125 L 12.25 -40.796875 C 13.5625 -36.710938 14.976562 -33.082031 16.5 -29.90625 C 18.03125 -26.726562 19.8125 -24.421875 21.84375 -22.984375 C 23.882812 -21.554688 26.335938 -21.304688 29.203125 -22.234375 Z M 29.203125 -22.234375 "/></g></g></g></g></g><g clip-path="url(#a52ed069db)"><g clip-path="url(#26285ffcd3)"><g fill="#737373" fill-opacity="1"><g transform="translate(789.105438, 904.48341)"><g/></g></g></g></g><g clip-path="url(#59c5115765)"><g clip-path="url(#b8993788a2)"><g fill="#737373" fill-opacity="1"><g transform="translate(824.199568, 893.205268)"><g><path d="M 41.828125 -11.90625 C 33.441406 -9.21875 26.222656 -8.707031 20.171875 -10.375 C 14.117188 -12.039062 9.035156 -15.566406 4.921875 -20.953125 C 0.816406 -26.335938 -2.546875 -33.113281 -5.171875 -41.28125 L -20.28125 -88.328125 C -22.914062 -96.503906 -24.078125 -103.882812 -23.765625 -110.46875 C -23.453125 -117.050781 -21.316406 -122.695312 -17.359375 -127.40625 C -13.398438 -132.113281 -7.226562 -135.8125 1.15625 -138.5 C 9.519531 -141.1875 16.660156 -141.734375 22.578125 -140.140625 C 28.503906 -138.554688 33.5 -135.207031 37.5625 -130.09375 C 41.625 -124.976562 44.972656 -118.332031 47.609375 -110.15625 L 62.78125 -62.953125 C 65.363281 -54.890625 66.523438 -47.488281 66.265625 -40.75 C 66.015625 -34.007812 63.96875 -28.1875 60.125 -23.28125 C 56.289062 -18.382812 50.191406 -14.59375 41.828125 -11.90625 Z M 37.453125 -25.546875 C 42.035156 -27.023438 45.195312 -29.085938 46.9375 -31.734375 C 48.6875 -34.378906 49.421875 -37.546875 49.140625 -41.234375 C 48.859375 -44.921875 47.976562 -49.0625 46.5 -53.65625 L 29.015625 -108.046875 C 27.535156 -112.648438 25.851562 -116.484375 23.96875 -119.546875 C 22.082031 -122.609375 19.675781 -124.65625 16.75 -125.6875 C 13.820312 -126.71875 10.066406 -126.492188 5.484375 -125.015625 C 0.878906 -123.535156 -2.332031 -121.515625 -4.15625 -118.953125 C -5.988281 -116.398438 -6.78125 -113.332031 -6.53125 -109.75 C -6.28125 -106.164062 -5.414062 -102.070312 -3.9375 -97.46875 L 13.546875 -43.078125 C 15.023438 -38.484375 16.722656 -34.601562 18.640625 -31.4375 C 20.554688 -28.269531 23.019531 -26.125 26.03125 -25 C 29.039062 -23.882812 32.847656 -24.066406 37.453125 -25.546875 Z M 37.453125 -25.546875 "/></g></g></g></g></g><g clip-path="url(#07644ec9d2)"><g clip-path="url(#7b73e56146)"><g fill="#737373" fill-opacity="1"><g transform="translate(906.801009, 866.659781)"><g><path d="M 21.375 -5.53125 C 17.90625 -4.414062 14.90625 -4.460938 12.375 -5.671875 C 9.851562 -6.878906 7.757812 -8.738281 6.09375 -11.25 C 4.4375 -13.769531 3.148438 -16.460938 2.234375 -19.328125 L -20.8125 -91.046875 L -4.421875 -96.3125 L 17.046875 -29.5 C 18.066406 -26.332031 19.328125 -24 20.828125 -22.5 C 22.328125 -21.007812 24.503906 -20.722656 27.359375 -21.640625 C 29.203125 -22.234375 30.945312 -23.382812 32.59375 -25.09375 C 34.25 -26.8125 35.75 -28.734375 37.09375 -30.859375 L 14.140625 -102.265625 L 30.53125 -107.53125 L 59 -18.953125 L 42.609375 -13.6875 L 39.796875 -22.421875 C 37.816406 -18.742188 35.328125 -15.351562 32.328125 -12.25 C 29.328125 -9.144531 25.675781 -6.90625 21.375 -5.53125 Z M 21.375 -5.53125 "/></g></g></g></g></g><g clip-path="url(#64ec658543)"><g clip-path="url(#c799caec51)"><g fill="#737373" fill-opacity="1"><g transform="translate(974.230755, 844.989995)"><g><path d="M 32.265625 -9.03125 C 27.660156 -7.550781 23.675781 -7.226562 20.3125 -8.0625 C 16.957031 -8.894531 14.128906 -10.691406 11.828125 -13.453125 C 9.523438 -16.210938 7.6875 -19.734375 6.3125 -24.015625 L -12.25 -81.796875 L -21.59375 -78.78125 L -25.09375 -89.65625 L -15.75 -92.671875 L -24.078125 -118.578125 L -7.6875 -123.84375 L 0.640625 -97.9375 L 14.890625 -102.515625 L 18.390625 -91.640625 L 4.140625 -87.0625 L 22.359375 -30.34375 C 23.472656 -26.875 24.832031 -24.578125 26.4375 -23.453125 C 28.039062 -22.328125 30.425781 -22.273438 33.59375 -23.296875 C 34.414062 -23.554688 35.34375 -23.910156 36.375 -24.359375 C 37.414062 -24.804688 38.429688 -25.25 39.421875 -25.6875 L 43.3125 -13.578125 C 41.375 -12.609375 39.554688 -11.769531 37.859375 -11.0625 C 36.171875 -10.363281 34.304688 -9.6875 32.265625 -9.03125 Z M 32.265625 -9.03125 "/></g></g></g></g></g></svg>