<svg xmlns="http://www.w3.org/2000/svg" xmlns:xlink="http://www.w3.org/1999/xlink" width="1728" zoomAndPan="magnify" viewBox="0 0 1296 1727.999927" height="2304" preserveAspectRatio="xMidYMid meet" version="1.0"><defs><g/><clipPath id="fd90b49a53"><path d="M 0 502 L 1296 502 L 1296 1277 L 0 1277 Z M 0 502 " clip-rule="nonzero"/></clipPath><clipPath id="af48955607"><path d="M -97.199219 949.828125 L 1297.371094 501.660156 L 1402.4375 828.589844 L 7.867188 1276.761719 Z M -97.199219 949.828125 " clip-rule="nonzero"/></clipPath><clipPath id="54fbe4de27"><path d="M -4.660156 920.089844 L 1296.535156 501.925781 L 1309.0625 858.597656 L 7.867188 1276.761719 Z M -4.660156 920.089844 " clip-rule="nonzero"/></clipPath><clipPath id="48b8ef70ac"><path d="M 90 967 L 241 967 L 241 1122 L 90 1122 Z M 90 967 " clip-rule="nonzero"/></clipPath><clipPath id="c225c7c8cb"><path d="M -50.789062 934.914062 L 1250.183594 516.824219 L 1355.277344 843.851562 L 54.308594 1261.941406 Z M -50.789062 934.914062 " clip-rule="nonzero"/></clipPath><clipPath id="f3a2bbd98d"><path d="M 216 927 L 351 927 L 351 1080 L 216 1080 Z M 216 927 " clip-rule="nonzero"/></clipPath><clipPath id="f115a12ead"><path d="M -50.789062 934.914062 L 1250.183594 516.824219 L 1355.277344 843.851562 L 54.308594 1261.941406 Z M -50.789062 934.914062 " clip-rule="nonzero"/></clipPath><clipPath id="c7d0ed4ce6"><path d="M 332 921 L 456 921 L 456 1046 L 332 1046 Z M 332 921 " clip-rule="nonzero"/></clipPath><clipPath id="1cfe321096"><path d="M -50.789062 934.914062 L 1250.183594 516.824219 L 1355.277344 843.851562 L 54.308594 1261.941406 Z M -50.789062 934.914062 " clip-rule="nonzero"/></clipPath><clipPath id="8b822f24ac"><path d="M 433 889 L 556 889 L 556 1014 L 433 1014 Z M 433 889 " clip-rule="nonzero"/></clipPath><clipPath id="dc32aa1a10"><path d="M -50.789062 934.914062 L 1250.183594 516.824219 L 1355.277344 843.851562 L 54.308594 1261.941406 Z M -50.789062 934.914062 " clip-rule="nonzero"/></clipPath><clipPath id="5397ff1cb3"><path d="M 529 826 L 665 826 L 665 979 L 529 979 Z M 529 826 " clip-rule="nonzero"/></clipPath><clipPath id="8474530a46"><path d="M -50.789062 934.914062 L 1250.183594 516.824219 L 1355.277344 843.851562 L 54.308594 1261.941406 Z M -50.789062 934.914062 " clip-rule="nonzero"/></clipPath><clipPath id="9571caecd2"><path d="M 638 823 L 763 823 L 763 948 L 638 948 Z M 638 823 " clip-rule="nonzero"/></clipPath><clipPath id="3c309d5d90"><path d="M -50.789062 934.914062 L 1250.183594 516.824219 L 1355.277344 843.851562 L 54.308594 1261.941406 Z M -50.789062 934.914062 " clip-rule="nonzero"/></clipPath><clipPath id="25cf4f4ed3"><path d="M 730 761 L 869 761 L 869 916 L 730 916 Z M 730 761 " clip-rule="nonzero"/></clipPath><clipPath id="d00abcef3e"><path d="M -50.789062 934.914062 L 1250.183594 516.824219 L 1355.277344 843.851562 L 54.308594 1261.941406 Z M -50.789062 934.914062 " clip-rule="nonzero"/></clipPath><clipPath id="cafddacdf2"><path d="M 877 879 L 878 879 L 878 880 L 877 880 Z M 877 879 " clip-rule="nonzero"/></clipPath><clipPath id="f8cc71fb0a"><path d="M -50.789062 934.914062 L 1250.183594 516.824219 L 1355.277344 843.851562 L 54.308594 1261.941406 Z M -50.789062 934.914062 " clip-rule="nonzero"/></clipPath><clipPath id="5b997fd2d6"><path d="M 875 712 L 1033 712 L 1033 869 L 875 869 Z M 875 712 " clip-rule="nonzero"/></clipPath><clipPath id="fdee565543"><path d="M -50.789062 934.914062 L 1250.183594 516.824219 L 1355.277344 843.851562 L 54.308594 1261.941406 Z M -50.789062 934.914062 " clip-rule="nonzero"/></clipPath><clipPath id="6e73dec5b0"><path d="M 1016 702 L 1141 702 L 1141 826 L 1016 826 Z M 1016 702 " clip-rule="nonzero"/></clipPath><clipPath id="667429e06b"><path d="M -50.789062 934.914062 L 1250.183594 516.824219 L 1355.277344 843.851562 L 54.308594 1261.941406 Z M -50.789062 934.914062 " clip-rule="nonzero"/></clipPath><clipPath id="aa438cfb17"><path d="M 1115 657 L 1213 657 L 1213 791 L 1115 791 Z M 1115 657 " clip-rule="nonzero"/></clipPath><clipPath id="90d16f4aa7"><path d="M -50.789062 934.914062 L 1250.183594 516.824219 L 1355.277344 843.851562 L 54.308594 1261.941406 Z M -50.789062 934.914062 " clip-rule="nonzero"/></clipPath></defs><g clip-path="url(#fd90b49a53)"><g clip-path="url(#af48955607)"><g clip-path="url(#54fbe4de27)"><path fill="#004aad" d="M -97.199219 949.828125 L 1296.09375 502.070312 L 1401.160156 829 L 7.867188 1276.761719 Z M -97.199219 949.828125 " fill-opacity="1" fill-rule="nonzero"/></g></g></g><g clip-path="url(#48b8ef70ac)"><g clip-path="url(#c225c7c8cb)"><g fill="#ffde59" fill-opacity="1"><g transform="translate(122.262744, 1121.936463)"><g><path d="M -13.390625 -59.640625 C -17.035156 -70.992188 -17.910156 -81.878906 -16.015625 -92.296875 C -14.128906 -102.722656 -9.613281 -111.820312 -2.46875 -119.59375 C 4.664062 -127.363281 13.90625 -133.070312 25.25 -136.71875 C 39.65625 -141.34375 53.003906 -141.382812 65.296875 -136.84375 C 77.585938 -132.3125 87.273438 -123.898438 94.359375 -111.609375 L 59.828125 -100.5 C 56.347656 -104.195312 52.410156 -106.601562 48.015625 -107.71875 C 43.628906 -108.84375 39.03125 -108.628906 34.21875 -107.078125 C 26.800781 -104.703125 21.726562 -100.15625 19 -93.4375 C 16.28125 -86.726562 16.34375 -78.953125 19.1875 -70.109375 C 22.0625 -61.160156 26.5625 -54.75 32.6875 -50.875 C 38.8125 -47.007812 45.582031 -46.265625 53 -48.640625 C 57.8125 -50.191406 61.675781 -52.695312 64.59375 -56.15625 C 67.507812 -59.613281 69.300781 -63.863281 69.96875 -68.90625 L 104.5 -80.015625 C 105.914062 -65.890625 102.945312 -53.398438 95.59375 -42.546875 C 88.25 -31.703125 77.375 -23.96875 62.96875 -19.34375 C 51.625 -15.695312 40.785156 -14.953125 30.453125 -17.109375 C 20.117188 -19.273438 11.148438 -24.039062 3.546875 -31.40625 C -4.054688 -38.769531 -9.703125 -48.179688 -13.390625 -59.640625 Z M -13.390625 -59.640625 "/></g></g></g></g></g><g clip-path="url(#f3a2bbd98d)"><g clip-path="url(#f115a12ead)"><g fill="#ffde59" fill-opacity="1"><g transform="translate(246.366884, 1082.053323)"><g><path d="M 39.8125 -115.015625 C 50.28125 -118.378906 59.726562 -117.535156 68.15625 -112.484375 C 76.582031 -107.429688 82.726562 -98.898438 86.59375 -86.890625 L 103.796875 -33.359375 L 71.71875 -23.046875 L 55.875 -72.328125 C 54.195312 -77.566406 51.507812 -81.242188 47.8125 -83.359375 C 44.113281 -85.484375 39.972656 -85.8125 35.390625 -84.34375 C 30.597656 -82.800781 27.316406 -80.09375 25.546875 -76.21875 C 23.785156 -72.34375 23.742188 -67.785156 25.421875 -62.546875 L 41.265625 -13.265625 L 9.15625 -2.9375 L -29.78125 -124.078125 L 2.328125 -134.40625 L 15.953125 -92.015625 C 17.453125 -97.066406 20.21875 -101.65625 24.25 -105.78125 C 28.28125 -109.90625 33.46875 -112.984375 39.8125 -115.015625 Z M 39.8125 -115.015625 "/></g></g></g></g></g><g clip-path="url(#c7d0ed4ce6)"><g clip-path="url(#1cfe321096)"><g fill="#ffde59" fill-opacity="1"><g transform="translate(358.682751, 1045.95856)"><g><path d="M 81.828125 -78.140625 C 82.640625 -75.640625 83.285156 -73.070312 83.765625 -70.4375 L 23.015625 -50.921875 C 24.941406 -46.003906 27.53125 -42.710938 30.78125 -41.046875 C 34.039062 -39.390625 37.578125 -39.175781 41.390625 -40.40625 C 46.734375 -42.125 49.78125 -45.75 50.53125 -51.28125 L 84.75 -62.28125 C 85.363281 -55.488281 84.421875 -48.953125 81.921875 -42.671875 C 79.429688 -36.390625 75.53125 -30.832031 70.21875 -26 C 64.90625 -21.164062 58.488281 -17.539062 50.96875 -15.125 C 41.90625 -12.207031 33.238281 -11.523438 24.96875 -13.078125 C 16.707031 -14.640625 9.441406 -18.328125 3.171875 -24.140625 C -3.097656 -29.953125 -7.773438 -37.664062 -10.859375 -47.28125 C -13.941406 -56.875 -14.648438 -65.820312 -12.984375 -74.125 C -11.316406 -82.425781 -7.578125 -89.617188 -1.765625 -95.703125 C 4.035156 -101.785156 11.523438 -106.300781 20.703125 -109.25 C 29.753906 -112.15625 38.367188 -112.875 46.546875 -111.40625 C 54.734375 -109.945312 61.90625 -106.382812 68.0625 -100.71875 C 74.226562 -95.050781 78.816406 -87.523438 81.828125 -78.140625 Z M 46.5 -75.640625 C 45.226562 -79.566406 42.921875 -82.222656 39.578125 -83.609375 C 36.242188 -85.003906 32.613281 -85.070312 28.6875 -83.8125 C 24.757812 -82.550781 21.882812 -80.453125 20.0625 -77.515625 C 18.238281 -74.585938 17.609375 -70.925781 18.171875 -66.53125 Z M 46.5 -75.640625 "/></g></g></g></g></g><g clip-path="url(#8b822f24ac)"><g clip-path="url(#dc32aa1a10)"><g fill="#ffde59" fill-opacity="1"><g transform="translate(459.537817, 1013.546936)"><g><path d="M -10.859375 -47.28125 C -13.910156 -56.769531 -14.609375 -65.691406 -12.953125 -74.046875 C -11.304688 -82.398438 -7.578125 -89.617188 -1.765625 -95.703125 C 4.035156 -101.785156 11.46875 -106.28125 20.53125 -109.1875 C 32.207031 -112.9375 43.054688 -112.898438 53.078125 -109.078125 C 63.097656 -105.265625 71.097656 -97.992188 77.078125 -87.265625 L 43.03125 -76.3125 C 39.132812 -81.6875 34.351562 -83.460938 28.6875 -81.640625 C 24.644531 -80.335938 21.984375 -77.644531 20.703125 -73.5625 C 19.421875 -69.488281 19.816406 -64.234375 21.890625 -57.796875 C 23.960938 -51.347656 26.710938 -46.8125 30.140625 -44.1875 C 33.578125 -41.5625 37.316406 -40.898438 41.359375 -42.203125 C 47.140625 -44.054688 49.992188 -48.28125 49.921875 -54.875 L 83.96875 -65.828125 C 85.320312 -53.734375 83.050781 -43.1875 77.15625 -34.1875 C 71.257812 -25.1875 62.472656 -18.8125 50.796875 -15.0625 C 41.734375 -12.15625 33.066406 -11.476562 24.796875 -13.03125 C 16.535156 -14.582031 9.296875 -18.273438 3.078125 -24.109375 C -3.128906 -29.941406 -7.773438 -37.664062 -10.859375 -47.28125 Z M -10.859375 -47.28125 "/></g></g></g></g></g><g clip-path="url(#5397ff1cb3)"><g clip-path="url(#8474530a46)"><g fill="#ffde59" fill-opacity="1"><g transform="translate(558.91936, 981.608855)"><g><path d="M 66.625 -21.40625 L 29.171875 -50.921875 L 41.265625 -13.265625 L 9.15625 -2.9375 L -29.78125 -124.078125 L 2.328125 -134.40625 L 23.328125 -69.09375 L 37.109375 -113.25 L 75.59375 -125.625 L 54.25 -67.84375 L 105.765625 -33.984375 Z M 66.625 -21.40625 "/></g></g></g></g></g><g clip-path="url(#9571caecd2)"><g clip-path="url(#3c309d5d90)"><g fill="#ffde59" fill-opacity="1"><g transform="translate(664.849933, 947.566124)"><g><path d="M 81.828125 -78.140625 C 82.640625 -75.640625 83.285156 -73.070312 83.765625 -70.4375 L 23.015625 -50.921875 C 24.941406 -46.003906 27.53125 -42.710938 30.78125 -41.046875 C 34.039062 -39.390625 37.578125 -39.175781 41.390625 -40.40625 C 46.734375 -42.125 49.78125 -45.75 50.53125 -51.28125 L 84.75 -62.28125 C 85.363281 -55.488281 84.421875 -48.953125 81.921875 -42.671875 C 79.429688 -36.390625 75.53125 -30.832031 70.21875 -26 C 64.90625 -21.164062 58.488281 -17.539062 50.96875 -15.125 C 41.90625 -12.207031 33.238281 -11.523438 24.96875 -13.078125 C 16.707031 -14.640625 9.441406 -18.328125 3.171875 -24.140625 C -3.097656 -29.953125 -7.773438 -37.664062 -10.859375 -47.28125 C -13.941406 -56.875 -14.648438 -65.820312 -12.984375 -74.125 C -11.316406 -82.425781 -7.578125 -89.617188 -1.765625 -95.703125 C 4.035156 -101.785156 11.523438 -106.300781 20.703125 -109.25 C 29.753906 -112.15625 38.367188 -112.875 46.546875 -111.40625 C 54.734375 -109.945312 61.90625 -106.382812 68.0625 -100.71875 C 74.226562 -95.050781 78.816406 -87.523438 81.828125 -78.140625 Z M 46.5 -75.640625 C 45.226562 -79.566406 42.921875 -82.222656 39.578125 -83.609375 C 36.242188 -85.003906 32.613281 -85.070312 28.6875 -83.8125 C 24.757812 -82.550781 21.882812 -80.453125 20.0625 -77.515625 C 18.238281 -74.585938 17.609375 -70.925781 18.171875 -66.53125 Z M 46.5 -75.640625 "/></g></g></g></g></g><g clip-path="url(#25cf4f4ed3)"><g clip-path="url(#d00abcef3e)"><g fill="#ffde59" fill-opacity="1"><g transform="translate(765.704998, 915.154499)"><g><path d="M -10.859375 -47.28125 C -13.910156 -56.769531 -14.851562 -65.613281 -13.6875 -73.8125 C -12.53125 -82.007812 -9.566406 -88.976562 -4.796875 -94.71875 C -0.0234375 -100.46875 6.019531 -104.519531 13.34375 -106.875 C 19.226562 -108.769531 24.882812 -109.234375 30.3125 -108.265625 C 35.738281 -107.304688 40.453125 -105.125 44.453125 -101.71875 L 30.984375 -143.609375 L 63.234375 -153.96875 L 102.171875 -32.828125 L 69.921875 -22.46875 L 65.8125 -35.234375 C 64.664062 -30.160156 62.203125 -25.632812 58.421875 -21.65625 C 54.648438 -17.6875 49.65625 -14.703125 43.4375 -12.703125 C 36.125 -10.347656 28.878906 -10.125 21.703125 -12.03125 C 14.523438 -13.9375 8.066406 -17.910156 2.328125 -23.953125 C -3.410156 -30.003906 -7.804688 -37.78125 -10.859375 -47.28125 Z M 55.296875 -68.53125 C 53.398438 -74.414062 50.296875 -78.53125 45.984375 -80.875 C 41.671875 -83.21875 37.171875 -83.640625 32.484375 -82.140625 C 27.679688 -80.597656 24.234375 -77.65625 22.140625 -73.3125 C 20.046875 -68.96875 19.960938 -63.796875 21.890625 -57.796875 C 23.785156 -51.890625 26.867188 -47.726562 31.140625 -45.3125 C 35.410156 -42.894531 39.945312 -42.457031 44.75 -44 C 49.4375 -45.5 52.847656 -48.457031 54.984375 -52.875 C 57.117188 -57.300781 57.222656 -62.519531 55.296875 -68.53125 Z M 55.296875 -68.53125 "/></g></g></g></g></g><g clip-path="url(#cafddacdf2)"><g clip-path="url(#f8cc71fb0a)"><g fill="#ffde59" fill-opacity="1"><g transform="translate(877.038503, 879.375437)"><g/></g></g></g></g><g clip-path="url(#5b997fd2d6)"><g clip-path="url(#fdee565543)"><g fill="#ffde59" fill-opacity="1"><g transform="translate(908.310172, 869.325713)"><g><path d="M 64.875 -19.59375 C 54.070312 -16.113281 43.320312 -15.457031 32.625 -17.625 C 21.9375 -19.789062 12.5 -24.523438 4.3125 -31.828125 C -3.875 -39.128906 -9.789062 -48.457031 -13.4375 -59.8125 C -17.09375 -71.164062 -17.71875 -82.191406 -15.3125 -92.890625 C -12.90625 -103.597656 -7.976562 -112.914062 -0.53125 -120.84375 C 6.90625 -128.769531 16.023438 -134.472656 26.828125 -137.953125 C 37.742188 -141.453125 48.507812 -142.140625 59.125 -140.015625 C 69.75 -137.898438 79.125 -133.179688 87.25 -125.859375 C 95.382812 -118.535156 101.28125 -109.195312 104.9375 -97.84375 C 108.582031 -86.488281 109.226562 -75.46875 106.875 -64.78125 C 104.53125 -54.101562 99.644531 -44.769531 92.21875 -36.78125 C 84.800781 -28.789062 75.6875 -23.0625 64.875 -19.59375 Z M 55.296875 -49.390625 C 63.484375 -52.015625 69.09375 -56.765625 72.125 -63.640625 C 75.15625 -70.515625 75.234375 -78.425781 72.359375 -87.375 C 69.410156 -96.539062 64.707031 -103.003906 58.25 -106.765625 C 51.800781 -110.535156 44.484375 -111.109375 36.296875 -108.484375 C 28.003906 -105.816406 22.363281 -101.082031 19.375 -94.28125 C 16.382812 -87.476562 16.363281 -79.492188 19.3125 -70.328125 C 22.21875 -61.265625 26.867188 -54.84375 33.265625 -51.0625 C 39.660156 -47.28125 47.003906 -46.722656 55.296875 -49.390625 Z M 55.296875 -49.390625 "/></g></g></g></g></g><g clip-path="url(#6e73dec5b0)"><g clip-path="url(#667429e06b)"><g fill="#ffde59" fill-opacity="1"><g transform="translate(1037.162351, 827.916703)"><g><path d="M 73.625 -124.984375 L 103.140625 -33.140625 L 70.890625 -22.78125 L 66.6875 -35.875 C 65.289062 -30.851562 62.601562 -26.289062 58.625 -22.1875 C 54.644531 -18.082031 49.546875 -15.03125 43.328125 -13.03125 C 32.628906 -9.59375 23.0625 -10.398438 14.625 -15.453125 C 6.195312 -20.515625 0.0390625 -29.097656 -3.84375 -41.203125 L -21 -94.578125 L 10.921875 -104.84375 L 26.75 -55.578125 C 28.4375 -50.328125 31.15625 -46.648438 34.90625 -44.546875 C 38.65625 -42.441406 42.820312 -42.125 47.40625 -43.59375 C 52.09375 -45.101562 55.316406 -47.796875 57.078125 -51.671875 C 58.847656 -55.546875 58.890625 -60.109375 57.203125 -65.359375 L 41.375 -114.625 Z M 73.625 -124.984375 "/></g></g></g></g></g><g clip-path="url(#aa438cfb17)"><g clip-path="url(#90d16f4aa7)"><g fill="#ffde59" fill-opacity="1"><g transform="translate(1149.478262, 791.821926)"><g><path d="M 54.578125 -47.703125 L 63.359375 -20.359375 L 49.453125 -15.890625 C 25.984375 -8.347656 10.515625 -16.203125 3.046875 -39.453125 L -6.6875 -69.734375 L -17.984375 -66.109375 L -26.5625 -92.796875 L -15.265625 -96.421875 L -22.421875 -118.6875 L 9.828125 -129.046875 L 16.984375 -106.78125 L 33.671875 -112.15625 L 42.25 -85.46875 L 25.5625 -80.09375 L 35.453125 -49.3125 C 36.253906 -46.800781 37.40625 -45.1875 38.90625 -44.46875 C 40.40625 -43.75 42.519531 -43.828125 45.25 -44.703125 Z M 54.578125 -47.703125 "/></g></g></g></g></g></svg>